<?xml version="1.0" encoding="UTF-8"?>
<svg width="512" height="512" viewBox="0 0 512 512" fill="none" xmlns="http://www.w3.org/2000/svg">
  <rect width="512" height="512" rx="128" fill="#F8FAFC"/>
  <g filter="url(#filter0_d)">
    <path d="M128 128L179.2 179.2M179.2 179.2L230.4 128M179.2 179.2L128 230.4M179.2 179.2L230.4 230.4" stroke="#3B82F6" stroke-width="24" stroke-linecap="round" stroke-linejoin="round"/>
    <path d="M128 332.8L179.2 384M179.2 384L230.4 332.8M179.2 384L128 435.2M179.2 384L230.4 435.2" stroke="#3B82F6" stroke-width="16" stroke-linecap="round" stroke-linejoin="round"/>
    <path d="M332.8 128L384 179.2M384 179.2L435.2 128M384 179.2L332.8 230.4M384 179.2L435.2 230.4" stroke="#3B82F6" stroke-width="16" stroke-linecap="round" stroke-linejoin="round"/>
    <circle cx="384" cy="384" r="51.2" stroke="#3B82F6" stroke-width="20"/>
    <path d="M332.8 332.8L256 256" stroke="#3B82F6" stroke-width="16" stroke-linecap="round"/>
    <path d="M179.2 332.8L256 256" stroke="#3B82F6" stroke-width="16" stroke-linecap="round"/>
    <path d="M332.8 179.2L256 256" stroke="#3B82F6" stroke-width="16" stroke-linecap="round"/>
    <path d="M179.2 179.2L256 256" stroke="#3B82F6" stroke-width="24" stroke-linecap="round"/>
    <circle cx="256" cy="256" r="25.6" fill="#3B82F6"/>
  </g>
  <defs>
    <filter id="filter0_d" x="112" y="116" width="337.2" height="337.2" filterUnits="userSpaceOnUse" color-interpolation-filters="sRGB">
      <feFlood flood-opacity="0" result="BackgroundImageFix"/>
      <feColorMatrix in="SourceAlpha" type="matrix" values="0 0 0 0 0 0 0 0 0 0 0 0 0 0 0 0 0 0 127 0"/>
      <feOffset dy="4"/>
      <feGaussianBlur stdDeviation="2"/>
      <feColorMatrix type="matrix" values="0 0 0 0 0 0 0 0 0 0 0 0 0 0 0 0 0 0 0.1 0"/>
      <feBlend mode="normal" in2="BackgroundImageFix" result="effect1_dropShadow"/>
      <feBlend mode="normal" in="SourceGraphic" in2="effect1_dropShadow" result="shape"/>
    </filter>
  </defs>
</svg>
